# xmcd
#
# Track frame offsets: 
#        150
#        13767
#        24022
#        37432
#        51762
#        65842
#        84137
#        96825
#        109457
#        124192
#        138212
#        151672
#        166837
#        178787
#        197412
#        216960
#
# Disc length: 3396 seconds
#
# Revision: 1
# Processed by: cddbd v1.5.2PL0 Copyright (c) Steve Scherf et al.
# Submitted via: ExactAudioCopy v0.95b4
#
DISCID=d50d4210
DTITLE=Spencer Davis - Keep On Running
DYEAR=1900
DGENRE=R&B
TTITLE0=Keep On Running
TTITLE1=Sombody Help Me
TTITLE2=When I Come home
TTITLE3=Gimme Some Lovin'
TTITLE4=I'm A Man
TTITLE5=Mr. Second Class
TTITLE6=Time Seller
TTITLE7=Midnight Special
TTITLE8=I'm A Believer
TTITLE9=Indian Giver
TTITLE10=Special Delivery
TTITLE11=Jami
TTITLE12=One Of The Ten
TTITLE13=Good Ole Days
TTITLE14=I Want to See The Bright Lights Tonight
TTITLE15=Medley 
EXTD=
EXTT0=
EXTT1=
EXTT2=
EXTT3=
EXTT4=
EXTT5=
EXTT6=
EXTT7=
EXTT8=
EXTT9=
EXTT10=
EXTT11=
EXTT12=
EXTT13=
EXTT14=
EXTT15=
PLAYORDER=
